<svg width="205" height="205" viewBox="0 0 205 205" fill="none" xmlns="http://www.w3.org/2000/svg">
<path d="M132.474 42.5059C153.832 44.7416 169.297 52.9582 179.868 65.1094C190.481 77.3086 196.277 93.6059 198.007 112.14C201.41 148.601 169.79 177.981 132.539 177.001C113.818 176.508 95.7613 170.47 82.4189 160.127C69.0978 149.8 60.5 135.212 60.5 117.5C60.5 81.7602 87.8975 45.5093 132.474 42.5059Z" fill="#552D13" stroke="black" stroke-width="3"/>
<path d="M66.7718 35.4279C55.2718 35.9278 -10.2282 83.4278 9.77181 86.9278C36.7718 90.4278 51.4643 88.6472 62.2718 86.9278C84.2718 83.4277 93.7718 62.4277 93.7718 62.4277C93.7718 62.4277 111.772 25.4276 110.772 40.4277C110.772 53.9276 108.772 47.4277 104.272 52.9277C101.772 56.4276 109.772 58.0944 116.272 54.4277C122.772 50.7611 134.772 47.4277 132.272 45.4277C129.772 43.4277 123.105 46.9277 117.272 48.4277C114.272 41.928 116.772 20.9279 109.272 30.4278C106.772 35.4279 102.272 38.9278 66.7718 35.4279Z" fill="#0F3F2E" stroke="black" stroke-width="2"/>
<g opacity="0.18">
<circle cx="94" cy="143" r="3" fill="black"/>
<circle cx="85" cy="155" r="2" fill="black"/>
<circle cx="110" cy="148" r="4" fill="#16110F"/>
<circle cx="77" cy="137" r="3" fill="#271408"/>
<circle cx="122" cy="165" r="3" fill="#271408"/>
<circle cx="103.5" cy="165.5" r="2.5" fill="#271408"/>
</g>
<circle cx="123.905" cy="107.952" r="3.57143" fill="#EC764F"/>
<circle cx="148.905" cy="105.571" r="3.57143" fill="#EC764F"/>
<path d="M127.476 123.846C131.916 128.847 144.272 127.597 148.905 122.238" stroke="black" stroke-width="2"/>
<path d="M129.857 120.452C128.667 124.024 126.286 125.214 123.31 125.214" stroke="black" stroke-width="2"/>
</svg>
